<?xml version="1.0" standalone="no"?>
<!DOCTYPE svg PUBLIC "-//W3C//DTD SVG 20010904//EN"
 "http://www.w3.org/TR/2001/REC-SVG-20010904/DTD/svg10.dtd">
<svg version="1.0" xmlns="http://www.w3.org/2000/svg"
 width="198.000000pt" height="198.000000pt" viewBox="0 0 198.000000 198.000000"
 preserveAspectRatio="xMidYMid meet">
<metadata>
Created by potrace 1.14, written by Peter Selinger 2001-2017
</metadata>
<g transform="translate(0.000000,198.000000) scale(0.100000,-0.100000)"
fill="#000000" stroke="none">
<path d="M199 1570 c-1 -8 0 -19 1 -25 1 -5 2 -24 2 -42 -1 -32 16 -60 78
-124 14 -15 63 -68 110 -119 47 -51 108 -117 136 -146 28 -29 49 -56 46 -59
-3 -3 2 -5 12 -5 9 0 15 -4 12 -9 -9 -14 16 -20 37 -9 18 9 24 38 7 38 -5 0
-10 8 -10 17 0 9 -3 13 -7 10 -3 -4 -14 4 -22 17 -14 21 -61 77 -116 139 -11
13 -38 45 -60 71 -22 27 -49 58 -60 71 -11 12 -36 41 -55 65 -67 82 -110 124
-111 110z"/>
<path d="M1054 1473 c4 -4 -10 -24 -39 -57 -6 -6 -22 -27 -35 -46 -13 -19 -37
-48 -52 -65 -15 -16 -28 -36 -28 -42 0 -7 -3 -13 -8 -13 -4 0 -13 -9 -20 -21
-15 -23 -17 -23 143 6 11 2 21 4 23 5 2 3 5 3 57 14 22 5 54 10 70 12 17 2 41
6 55 9 14 3 41 8 60 11 57 9 67 14 67 28 0 7 -15 19 -34 27 -18 7 -33 15 -33
18 0 4 -15 12 -32 20 -18 8 -35 17 -38 21 -11 13 -126 75 -143 76 -10 1 -16
-1 -13 -3z"/>
<path d="M1138 1195 c-32 -6 -65 -18 -74 -26 -10 -8 -18 -12 -18 -10 -1 2 -22
-6 -48 -18 -26 -11 -51 -21 -55 -21 -5 0 -14 -5 -21 -12 -6 -6 -17 -13 -24
-14 -7 -1 -34 -12 -60 -23 -26 -12 -51 -21 -54 -21 -4 1 -10 -4 -15 -11 -7
-12 6 -56 39 -129 9 -19 17 -44 19 -55 2 -11 11 -27 20 -35 9 -8 13 -9 9 -2
-4 6 -2 12 4 12 6 0 24 14 40 30 17 17 30 28 30 26 0 -5 42 31 100 86 15 15
31 24 34 21 3 -4 6 -1 6 5 0 6 13 20 30 32 22 16 28 17 24 6 -3 -9 -10 -16
-16 -16 -5 0 -6 -6 -2 -12 4 -7 4 -10 0 -7 -4 4 -29 -15 -56 -41 -26 -27 -51
-46 -54 -43 -3 4 -6 1 -6 -5 0 -5 -2 -16 -5 -24 -4 -10 23 -13 140 -12 81 1
150 5 155 10 4 5 11 36 15 69 3 33 11 82 16 109 6 32 6 53 -1 61 -5 6 -6 16
-2 21 4 5 3 6 -1 2 -5 -3 -24 9 -42 28 -36 37 -42 38 -127 19z"/>
<path d="M710 1071 c-15 -6 -28 -17 -98 -79 -30 -26 -34 -34 -22 -42 8 -5 19
-6 25 -2 54 36 83 58 98 79 21 27 19 53 -3 44z"/>
<path d="M693 981 c-41 -34 -41 -44 -2 -72 l31 -22 25 25 c24 24 24 25 7 61
-10 21 -20 37 -23 37 -3 -1 -21 -13 -38 -29z"/>
<path d="M820 743 l-75 -72 0 -101 -1 -100 273 0 c150 1 273 3 273 6 0 9 -64
95 -92 126 -10 10 -15 18 -10 18 4 0 2 4 -3 8 -6 4 -28 28 -48 53 -31 38 -35
48 -22 53 9 3 13 10 10 16 -3 5 -1 10 4 10 11 0 51 35 51 44 0 3 -64 6 -143 8
l-142 3 -75 -72z"/>
<path d="M1193 795 c-7 -8 -13 -19 -13 -25 0 -5 -4 -10 -9 -10 -5 0 -11 -8
-14 -19 -3 -12 9 -33 34 -61 22 -23 39 -44 39 -47 0 -2 9 -14 21 -26 11 -12
41 -48 66 -80 l46 -57 76 0 c42 -1 109 -2 148 -3 51 -1 74 2 78 11 2 6 -1 12
-8 12 -7 0 -22 8 -33 18 -10 9 -39 28 -64 41 -25 13 -52 29 -60 35 -8 7 -27
18 -42 26 -16 7 -28 17 -28 22 0 4 -5 8 -12 8 -6 0 -33 14 -59 30 -41 27 -51
40 -64 90 -11 44 -18 50 -53 50 -20 -1 -43 -7 -49 -15z"/>
</g>
</svg>
